<mxfile host="app.diagrams.net" modified="2023-12-15T12:17:59.558Z" agent="Mozilla/5.0 (Windows NT 10.0; Win64; x64; rv:120.0) Gecko/20100101 Firefox/120.0" etag="_E28ffbf7W3orSoFAH5p" version="22.1.8" type="github">
  <diagram name="Page-1" id="0myUZ8c7dWHY-Bk3ga8E">
    <mxGraphModel dx="1658" dy="907" grid="1" gridSize="10" guides="1" tooltips="1" connect="1" arrows="1" fold="1" page="1" pageScale="1" pageWidth="850" pageHeight="1100" math="0" shadow="0">
      <root>
        <mxCell id="0" />
        <mxCell id="1" parent="0" />
        <mxCell id="mc0AFIIn1Bl2oSxTT-1a-2" value="" style="shape=step;perimeter=stepPerimeter;whiteSpace=wrap;html=1;fixedSize=1;" vertex="1" parent="1">
          <mxGeometry x="370" y="420" width="120" height="80" as="geometry" />
        </mxCell>
      </root>
    </mxGraphModel>
  </diagram>
</mxfile>
